<?xml version="1.0" encoding="utf-8"?>
<!DOCTYPE svg PUBLIC "-//W3C//DTD SVG 1.0//EN" "http://www.w3.org/TR/2001/REC-SVG-20010904/DTD/svg10.dtd">
<svg version="1.0" xmlns="http://www.w3.org/2000/svg" width="512px" height="512px" viewBox="0 0 512 512" preserveAspectRatio="xMidYMid meet">
 <g fill="#ffffff">
  <path d="M39.3 452.8 c51.8 -77.4 93.4 -149.3 134.9 -232.8 11.1 -22.3 20.3 -40.6 20.4 -40.8 0.1 -0.2 4.4 2.5 9.5 5.8 5.2 3.4 14.8 8.8 21.4 12 12.3 6 31.8 13.3 34.3 12.8 0.7 -0.2 -2.6 -3.4 -7.5 -7.3 -11.1 -8.8 -30 -27.1 -39.7 -38.4 l-7.5 -8.8 2.6 -5.4 c6 -12.9 29.8 -69.4 38.4 -91.2 5.1 -13 9.6 -23.7 9.9 -23.7 0.4 0 3.2 6.9 6.4 15.2 18.9 49.5 50.7 121.1 77.8 175.1 19.7 39.5 48.5 92.1 71 129.7 l13.4 22.5 -9.1 -4.4 c-10.7 -5.1 -31.4 -12.2 -44 -15 -4.9 -1.1 -9.1 -1.8 -9.3 -1.7 -0.1 0.2 6.3 4 14.4 8.5 36.7 20.4 69 45.7 78.9 61.8 2.7 4.3 11.3 17.4 19.1 29.1 7.9 11.6 14.2 21.2 14.1 21.2 -0.2 0 -6.3 -3.6 -13.7 -8 -23.1 -13.8 -49.8 -26.2 -77.1 -36.1 -22.7 -8.1 -60.1 -17.1 -82.9 -20 -5.2 -0.7 -9.6 -1.3 -9.8 -1.5 -0.2 -0.1 0.9 -5.1 2.5 -11.1 2.6 -10 2.8 -12.1 2.7 -28.8 -0.1 -16.1 -0.4 -19 -2.7 -27.9 -1.5 -5.5 -4.7 -14 -7.1 -19 -22.7 -46.5 -69.3 -42.6 -88.5 7.4 -8.1 20.9 -9.3 51.1 -2.9 71.8 1.1 3.5 1.8 6.6 1.6 6.7 -0.2 0.2 -6.9 1.3 -14.8 2.5 -58.3 8.5 -116 29.3 -164.3 59.2 -4.3 2.6 -8 4.8 -8.2 4.8 -0.2 0 6.9 -10.9 15.8 -24.2z"/>
 </g>
</svg>